<?xml version="1.0" encoding="UTF-8" standalone="no"?>
<svg width="32px" height="32px" viewBox="0 0 32 32" version="1.1" xmlns="http://www.w3.org/2000/svg" xmlns:xlink="http://www.w3.org/1999/xlink">
    <!-- Generator: Sketch 42 (36781) - http://www.bohemiancoding.com/sketch -->
    <title>Group</title>
    <desc>Created with Sketch.</desc>
    <defs></defs>
    <g id="Page-1" stroke="none" stroke-width="1" fill="none" fill-rule="evenodd">
        <g id="Group" fill-rule="nonzero" fill="#ff2800">
            <path d="M16,0.217955556 C7.29742222,0.217955556 0.218311111,7.29813333 0.218311111,16.0003556 C0.218311111,24.7029333 7.29742222,31.7820444 16,31.7820444 C24.7015111,31.7820444 31.7820444,24.7029333 31.7820444,16.0003556 C31.7820444,7.29813333 24.7015111,0.217955556 16,0.217955556 Z M16,30.3008 C8.11448889,30.3008 1.6992,23.8858667 1.6992,16.0003556 C1.6992,8.11484444 8.11448889,1.69955556 16,1.69955556 C23.8848,1.69955556 30.3000889,8.11484444 30.3000889,16.0003556 C30.3000889,23.8858667 23.8848,30.3008 16,30.3008 Z" id="Shape"></path>
            <path d="M16,8.7616 C12.0085333,8.7616 8.7616,12.0088889 8.7616,16.0003556 C8.7616,19.9918222 12.0088889,23.2387556 16,23.2387556 C19.9918222,23.2387556 23.2391111,19.9914667 23.2391111,16.0003556 C23.2387556,12.0085333 19.9918222,8.7616 16,8.7616 Z M16,21.7575111 C12.8252444,21.7575111 10.2428444,19.1747556 10.2428444,16.0003556 C10.2428444,12.8252444 12.8252444,10.2428444 16,10.2428444 C19.1751111,10.2428444 21.7571556,12.8256 21.7571556,16.0003556 C21.7568,19.1751111 19.1751111,21.7575111 16,21.7575111 Z" id="Shape"></path>
            <path d="M16,11.6792889 C13.6131556,11.6792889 11.6792889,13.6128 11.6792889,15.9992889 C11.6792889,18.3857778 13.6135111,20.3196444 16,20.3196444 C18.3857778,20.3196444 20.32,18.3857778 20.32,15.9992889 C20.32,13.6128 18.3861333,11.6792889 16,11.6792889 Z M17.0193778,16.5312 C16.2300444,16.5312 15.5904,15.8912 15.5904,15.1022222 C15.5904,14.3121778 16.2300444,13.6725333 17.0193778,13.6725333 C17.8083556,13.6725333 18.4487111,14.3125333 18.4487111,15.1022222 C18.4487111,15.8912 17.8083556,16.5312 17.0193778,16.5312 Z" id="Shape"></path>
        </g>
    </g>
</svg>
