<?xml version="1.0" encoding="UTF-8" standalone="no"?>
<svg width="32px" height="29px" viewBox="0 0 32 29" version="1.1" xmlns="http://www.w3.org/2000/svg" xmlns:xlink="http://www.w3.org/1999/xlink">
    <!-- Generator: Sketch 42 (36781) - http://www.bohemiancoding.com/sketch -->
    <title>filter</title>
    <desc>Created with Sketch.</desc>
    <defs></defs>
    <g id="Page-1" stroke="none" stroke-width="1" fill="none" fill-rule="evenodd">
        <path d="M0.780487805,4.68292683 L19.9804878,4.68292683 C20.3317073,6.47804878 21.9317073,7.80487805 23.804878,7.80487805 C25.6780488,7.80487805 27.2780488,6.47804878 27.6292683,4.68292683 L31.2195122,4.68292683 C31.6487805,4.68292683 32,4.33170732 32,3.90243902 C32,3.47317073 31.6487805,3.12195122 31.2195122,3.12195122 L27.6292683,3.12195122 C27.2780488,1.32682927 25.6780488,0 23.804878,0 C21.9317073,0 20.3317073,1.32682927 19.9804878,3.12195122 L0.780487805,3.12195122 C0.351219512,3.12195122 0,3.47317073 0,3.90243902 C0,4.33170732 0.351219512,4.68292683 0.780487805,4.68292683 Z M23.804878,1.56097561 C25.0926829,1.56097561 26.1463415,2.61463415 26.1463415,3.90243902 C26.1463415,5.1902439 25.0926829,6.24390244 23.804878,6.24390244 C22.5170732,6.24390244 21.4634146,5.1902439 21.4634146,3.90243902 C21.4634146,2.61463415 22.5170732,1.56097561 23.804878,1.56097561 Z M31.2195122,13.6585366 L12.0195122,13.6585366 C11.6682927,11.8634146 10.0682927,10.5365854 8.19512195,10.5365854 C6.32195122,10.5365854 4.72195122,11.8634146 4.37073171,13.6585366 L0.780487805,13.6585366 C0.351219512,13.6585366 0,14.0097561 0,14.4390244 C0,14.8682927 0.351219512,15.2195122 0.780487805,15.2195122 L4.37073171,15.2195122 C4.72195122,17.0146341 6.32195122,18.3414634 8.19512195,18.3414634 C10.0682927,18.3414634 11.6682927,17.0146341 12.0195122,15.2195122 L31.2195122,15.2195122 C31.6487805,15.2195122 32,14.8682927 32,14.4390244 C32,14.0097561 31.6487805,13.6585366 31.2195122,13.6585366 Z M8.19512195,16.7804878 C6.90731707,16.7804878 5.85365854,15.7268293 5.85365854,14.4390244 C5.85365854,13.1512195 6.90731707,12.097561 8.19512195,12.097561 C9.48292683,12.097561 10.5365854,13.1512195 10.5365854,14.4390244 C10.5365854,15.7268293 9.48292683,16.7804878 8.19512195,16.7804878 Z M31.2195122,24.195122 L19.8243902,24.195122 C19.4731707,22.4 17.8731707,21.0731707 16,21.0731707 C14.1268293,21.0731707 12.5268293,22.4 12.1756098,24.195122 L0.780487805,24.195122 C0.351219512,24.195122 0,24.5463415 0,24.9756098 C0,25.404878 0.351219512,25.7560976 0.780487805,25.7560976 L12.1756098,25.7560976 C12.5268293,27.5512195 14.1268293,28.8780488 16,28.8780488 C17.8731707,28.8780488 19.4731707,27.5512195 19.8243902,25.7560976 L31.2195122,25.7560976 C31.6487805,25.7560976 32,25.404878 32,24.9756098 C32,24.5463415 31.6487805,24.195122 31.2195122,24.195122 Z M16,27.3170732 C14.7121951,27.3170732 13.6585366,26.2634146 13.6585366,24.9756098 C13.6585366,23.6878049 14.7121951,22.6341463 16,22.6341463 C17.2878049,22.6341463 18.3414634,23.6878049 18.3414634,24.9756098 C18.3414634,26.2634146 17.2878049,27.3170732 16,27.3170732 Z" id="filter" fill="#000000" fill-rule="nonzero"></path>
    </g>
</svg>