<?xml version="1.0" encoding="UTF-8" standalone="no"?>
<svg width="25px" height="37px" viewBox="0 0 25 37" version="1.1" xmlns="http://www.w3.org/2000/svg" xmlns:xlink="http://www.w3.org/1999/xlink">
    <!-- Generator: Sketch 42 (36781) - http://www.bohemiancoding.com/sketch -->
    <title>Shape</title>
    <desc>Created with Sketch.</desc>
    <defs></defs>
    <g id="Page-1" stroke="none" stroke-width="1" fill="none" fill-rule="evenodd" stroke-opacity="0.87">
        <path d="M22.9677412,10.1969171 C22.1709355,8.16080774 16.6230791,1.67070927 15.4402481,1.13421921 C15.2437543,1.04525547 15.0341093,1 14.8175019,1 C14.2837195,1 13.753805,1.28120279 13.4339223,1.73414428 C13.1202284,2.178963 13.0494442,2.71119826 13.2351077,3.23337676 C13.3426378,3.53546669 13.6060478,4.00078574 13.9553272,4.55816294 C12.1226741,3.41169104 10.4737505,2.51857242 9.90709011,2.44198624 C9.21394651,2.34876771 8.50649135,2.74562336 8.17074992,3.40820985 C7.86865999,4.00426693 7.92513263,4.68309897 8.32160149,5.22307022 C8.73586309,5.78740979 10.0362809,6.85420111 11.4128982,7.98442745 C12.732656,9.06746433 14.0907068,10.1822187 14.6175269,10.8177293 C13.0552462,10.1477936 11.3804071,9.58345404 10.1712737,9.58345404 C9.72413424,9.58345404 9.3559017,9.66197421 9.07663291,9.81746736 C7.25597056,10.8289464 1.88681525,15.6786309 1.74021847,16.8506315 C1.65744351,17.511284 1.9370991,18.3347788 2.43568287,18.8995052 C2.78534906,19.2955872 3.20618624,19.5137418 3.62044785,19.5137418 L3.62083465,19.5137418 C3.69587363,19.5137418 3.77168621,19.5067794 3.8459516,19.4928547 C4.31243105,19.4054381 5.15023743,18.7424648 6.21122677,17.9027244 C7.72283681,16.7063555 9.61350976,15.2005474 10.642008,15.3196815 C11.1734697,15.3811825 11.7366488,15.8786059 12.2274966,16.720667 C13.1051433,18.2260883 13.4791778,20.3658597 13.0444159,21.3935844 C12.3454703,23.046376 11.4941259,24.1468188 9.61350976,24.1468188 C9.27196634,24.1468188 8.89715823,24.1092993 8.49991577,24.0354207 C6.15243334,23.5987248 5.62058488,22.1872957 5.2322388,21.1564767 C5.15062423,20.9398693 5.07326446,20.7352527 4.9873951,20.5627404 C4.68414478,19.9562397 3.73223273,19.4437312 2.9083511,19.4437312 C2.28251051,19.4437312 1.85819213,19.7404059 1.74292606,20.257556 C1.50543155,21.3262814 1.32982486,24.0516663 2.36605907,26.7155502 C3.41815203,29.4215952 5.49642244,31.3757032 8.21755259,32.2177643 C9.69744512,32.6757342 10.5395063,33.4833703 11.2829337,34.1958538 C11.9702754,34.8545723 12.6193239,35.4769317 13.6358314,35.7113319 C13.9255437,35.7778613 14.2608984,35.8118996 14.6322253,35.8118996 C16.5646725,35.8118996 19.5055044,34.901375 21.7195412,32.8668129 C23.587393,31.1501994 23.4013428,28.7183948 23.2210945,26.3662708 C23.1495367,25.4333119 23.0822337,24.5525709 23.1398667,23.725208 C23.1963394,22.9140908 23.2779539,22.1729841 23.3564741,21.4562458 C23.527826,19.8955123 23.6678472,18.6070852 23.4493058,17.4865288 C23.5378828,16.0588542 23.6690076,11.9893431 22.9677412,10.1969171 Z M14.6322253,35.4896961 C14.2852667,35.4896961 13.9738936,35.4583654 13.7077759,35.3968644 C12.7779114,35.182191 12.1884299,34.6170778 11.5053431,33.9626141 C10.7363869,33.2257622 9.86454223,32.3902766 8.31231831,31.9094856 C5.68711429,31.0968212 3.68194887,29.210403 2.6658282,26.5979634 C1.7309353,24.1936215 1.78972873,21.5301244 2.05700676,20.3264062 C2.15989526,19.8622476 2.57647766,19.7647743 2.9075775,19.7647743 C3.61077788,19.7647743 4.44781066,20.2045646 4.69845634,20.7054692 C4.77697651,20.8628963 4.8512419,21.0597769 4.93014887,21.2686483 C5.32197614,22.3087505 5.91455203,23.8807012 8.44034874,24.3506618 C8.85731794,24.4280216 9.251466,24.4674751 9.61273616,24.4674751 C11.7919611,24.4674751 12.6920421,23.0494704 13.340317,21.51736 C13.8744863,20.2548485 13.3225243,17.9591971 12.5048314,16.5566643 C11.9617658,15.6248658 11.3127173,15.0713566 10.6779803,14.9978648 C9.53421599,14.8632588 7.65476021,16.3466325 6.01047815,17.6482108 C5.06630208,18.3955062 4.17395705,19.101801 3.78561097,19.1745192 C3.73068553,19.1845759 3.67537329,19.1899911 3.61967425,19.1899911 L3.61967425,19.1899911 C3.29901798,19.1899911 2.96405014,19.0105164 2.67627177,18.6848318 C2.24189662,18.1928236 1.98815656,17.4544245 2.05894075,16.8889246 C2.18465039,15.8832475 7.3124432,11.1639143 9.23173926,10.0975098 C9.46265819,9.96947932 9.77828608,9.90411031 10.1697266,9.90411031 C12.8912435,9.90411031 18.1335288,12.9021885 18.7226235,13.2441187 L19.1074884,13.4669148 C21.0221428,14.5735464 22.4053357,15.3730597 22.9638732,16.9237365 C23.3967012,18.1262942 23.2373401,19.5798844 23.035431,21.4202735 C22.9565241,22.140493 22.8749095,22.8846941 22.8176633,23.7020001 C22.758483,24.5525709 22.8269464,25.4449159 22.8992778,26.3898656 C23.0733373,28.6654034 23.2535856,31.0179142 21.5006131,32.6289316 C19.3631624,34.5946435 16.4416705,35.4896961 14.6322253,35.4896961 Z M15.0623456,10.8850323 C14.7068775,10.2707957 13.2060978,9.03884121 11.617128,7.73532897 C10.3163233,6.66776405 8.97142361,5.56384003 8.58114354,5.03237837 C8.25313808,4.58562566 8.20826941,4.04681481 8.45814149,3.55364623 C8.7327687,3.0113542 9.30561785,2.68644313 9.86376864,2.76109532 C11.0044385,2.91504128 18.5636491,7.66067678 20.0226545,9.52233981 C20.9610286,10.7194824 21.8332601,13.4777452 22.3333911,15.3169739 C21.591124,14.5325458 20.5459934,13.9264319 19.2703307,13.1891932 L18.8858526,12.9667839 C18.5760267,12.7869224 16.9936325,11.8814262 15.1516962,11.0525162 C15.1215259,10.9925624 15.0917424,10.9360897 15.0623456,10.8850323 Z M13.6969456,1.91980775 C13.9572612,1.55118841 14.386608,1.32220347 14.8171151,1.32220347 C14.9876935,1.32220347 15.1524698,1.35778897 15.3068025,1.42779957 C16.2981681,1.87725987 21.8522133,8.23120514 22.6675853,10.3145039 C23.2276701,11.7460466 23.2323117,14.8002106 23.1708106,16.5748439 C23.0729505,16.3470193 22.9588449,16.1346667 22.8281068,15.9358521 C22.3740049,14.1449733 21.3826394,10.7353411 20.2760078,9.32352519 C19.514014,8.35149959 16.9905381,6.50376132 14.5993474,4.96662256 C14.0868389,4.18026043 13.6706433,3.4967868 13.5387448,3.12545987 C13.3890537,2.70462268 13.4451395,2.27643632 13.6969456,1.91980775 Z" id="Shape" stroke="#000000" stroke-width="2" fill="#000000" fill-rule="nonzero"></path>
    </g>
</svg>