<?xml version="1.0" encoding="UTF-8" standalone="no"?>
<svg width="28px" height="43px" viewBox="0 0 28 43" version="1.1" xmlns="http://www.w3.org/2000/svg" xmlns:xlink="http://www.w3.org/1999/xlink">
    <!-- Generator: Sketch 42 (36781) - http://www.bohemiancoding.com/sketch -->
    <title>Shape</title>
    <desc>Created with Sketch.</desc>
    <defs></defs>
    <g id="Page-1" stroke="none" stroke-width="1" fill="none" fill-rule="evenodd">
        <path d="M25.8598373,11.8690838 C24.9181578,9.46277279 18.3616003,1.7926564 16.9637091,1.15862271 C16.7314891,1.05348374 16.4837268,1 16.2277363,1 C15.5969025,1 14.9706399,1.33233057 14.5925968,1.86762506 C14.2218676,2.39331991 14.1382136,3.02232522 14.357634,3.63944526 C14.484715,3.99646063 14.7960178,4.54638315 15.2088026,5.20510165 C13.0429398,3.85018032 11.0942118,2.7946765 10.4245223,2.70416556 C9.60535261,2.5939982 8.76926924,3.06300943 8.37248391,3.84606619 C8.01546854,4.55049728 8.08220893,5.35275333 8.55076304,5.99090117 C9.04034493,6.65784793 10.5772024,7.91860131 12.2041137,9.25432335 C13.7638274,10.534276 15.3687966,11.851713 15.9914022,12.602771 C14.1450705,11.8110288 12.1657151,11.144082 10.7367393,11.144082 C10.2083017,11.144082 9.77311784,11.2368786 9.4430729,11.4206432 C7.29138103,12.6160276 0.946015665,18.3474728 0.772764928,19.7325645 C0.674939974,20.5133356 1.00544204,21.4865568 1.59467739,22.1539606 C2.00791926,22.6220576 2.50527229,22.8798767 2.99485419,22.8798767 L2.99531132,22.8798767 C3.08399375,22.8798767 3.17359044,22.8716484 3.26135862,22.8551919 C3.81265252,22.7518814 4.80278734,21.9683675 6.05668383,20.9759471 C7.84313206,19.5620565 10.0775637,17.7824651 11.2930616,17.9232599 C11.9211527,17.995943 12.5867281,18.5838069 13.1668209,19.5789701 C14.2040397,21.3581044 14.6460805,23.8869251 14.1322709,25.1015088 C13.3062443,27.054808 12.3001101,28.3553313 10.0775637,28.3553313 C9.6739215,28.3553313 9.23096645,28.3109901 8.7614981,28.2236791 C5.98720069,27.7075839 5.3586525,26.0395313 4.89969804,24.8212906 C4.80324446,24.5653001 4.71181927,24.3234804 4.61033731,24.1196022 C4.25195056,23.4028288 3.12696359,22.7971369 2.15328531,22.7971369 C1.41365552,22.7971369 0.912188344,23.1477525 0.77596481,23.7589299 C0.495289474,25.0219689 0.287754291,28.2428784 1.51239472,31.3911048 C2.75577732,34.589158 5.21191507,36.8985583 8.42779615,37.8937215 C10.1767601,38.4349586 11.1719233,39.3894376 12.0505193,40.2314636 C12.8628322,41.0099491 13.6298895,41.7454648 14.8312165,42.0224831 C15.1736039,42.1011088 15.5699321,42.1413359 16.008773,42.1413359 C18.2925742,42.1413359 21.7681029,41.0652614 24.3846918,38.6607788 C26.5921531,36.6320539 26.3722755,33.758103 26.1592548,30.9783201 C26.0746865,29.8757323 25.9951466,28.8348565 26.0632583,27.857064 C26.1299987,26.8984709 26.2264523,26.0226176 26.3192489,25.1755632 C26.5217557,23.33106 26.6872353,21.8083734 26.4289591,20.4840795 C26.5336409,18.7968276 26.6886066,13.9874055 25.8598373,11.8690838 Z M16.008773,41.7605499 C15.598731,41.7605499 15.2307446,41.7235227 14.9162419,41.6508397 C13.8173112,41.3971348 13.1206512,40.7292738 12.3133668,39.9558167 C11.4046004,39.0849917 10.3742385,38.0975997 8.53979201,37.5293921 C5.43727816,36.5689705 3.06753722,34.3395672 1.86666734,31.2521385 C0.761793905,28.4106436 0.83127705,25.2628743 1.14715108,23.8402983 C1.26874659,23.2917471 1.76107124,23.1765514 2.15237106,23.1765514 C2.98342604,23.1765514 3.97264661,23.6963036 4.26886422,24.2882817 C4.36166079,24.474332 4.44942898,24.7070091 4.54268267,24.9538571 C5.00575126,26.1830688 5.70606822,28.0408287 8.6911007,28.5962367 C9.18388248,28.6876619 9.64969383,28.7342888 10.0766495,28.7342888 C12.6520971,28.7342888 13.7158292,27.058465 14.4819723,25.2477891 C15.1132632,23.75573 14.4609445,21.0426875 13.4945802,19.3851487 C12.8527754,18.2839323 12.085718,17.6297851 11.3355743,17.5429311 C9.9838529,17.3838513 7.76267789,19.1369293 5.81943546,20.6751582 C4.70359101,21.5583255 3.64900143,22.3930375 3.19004697,22.4789772 C3.12513509,22.4908625 3.05976608,22.4972622 2.99393994,22.4972622 L2.99393994,22.4972622 C2.61498252,22.4972622 2.21911145,22.2851558 1.87900974,21.9002557 C1.36565729,21.3187915 1.06578266,20.4461381 1.14943671,19.7778199 C1.29800265,18.5892925 7.35812142,13.0118987 9.6263804,11.7516024 C9.8992846,11.6002937 10.2722994,11.5230395 10.7349108,11.5230395 C13.9512491,11.5230395 20.1466771,15.0662227 20.8428799,15.4703221 L21.2977203,15.7336266 C23.5604937,17.041464 25.1951761,17.9863433 25.855266,19.8189613 C26.36679,21.2401659 26.1784541,22.9580452 25.9398343,25.1330505 C25.8465806,25.984219 25.7501271,26.8637293 25.6824724,27.8296365 C25.6125321,28.8348565 25.6934434,29.889446 25.778926,31.0062047 C25.9846327,33.6954767 26.1976534,36.4757168 24.1259585,38.3796464 C21.5998805,40.7027605 18.1472082,41.7605499 16.008773,41.7605499 Z M16.517097,12.6823109 C16.0969983,11.9563949 14.3233496,10.5004487 12.4454762,8.95993424 C10.9081616,7.6982666 9.31873464,6.39362913 8.85749455,5.76553807 C8.46985174,5.23755759 8.41682513,4.60078114 8.7121285,4.01794555 C9.03668792,3.37705496 9.71369146,2.99306916 10.3733242,3.08129447 C11.7213887,3.2632306 20.6550012,8.87170893 22.3792803,11.0718561 C23.4882678,12.486661 24.5190869,15.7464261 25.1101507,17.9200601 C24.232926,16.9930086 22.9977717,16.2766923 21.4901703,15.4054102 L21.0357871,15.1425628 C20.6696292,14.9299992 18.7995269,13.8598673 16.6226931,12.8802464 C16.5870373,12.8093919 16.5518386,12.7426515 16.517097,12.6823109 Z M14.9034424,2.08704552 C15.2110882,1.65140448 15.718498,1.38078592 16.2272792,1.38078592 C16.4288717,1.38078592 16.6236074,1.42284151 16.8060006,1.50558131 C17.9776145,2.03676166 24.541486,9.54596971 25.5051075,12.0080501 C26.1670259,13.6998733 26.1725114,17.3093398 26.0998284,19.4066337 C25.9841755,19.1373865 25.8493234,18.8864243 25.6948148,18.6514616 C25.1581489,16.5349684 23.9865351,12.5054031 22.6786978,10.8368934 C21.7781596,9.68813588 18.7958699,7.5044452 15.9699173,5.68782666 C15.3642254,4.75848959 14.8723579,3.95074803 14.7164779,3.51190712 C14.5395702,3.01455408 14.6058534,2.50851565 14.9034424,2.08704552 Z" id="Shape" stroke="#000000" fill="#000000" fill-rule="nonzero" transform="translate(13.561213, 21.570668) scale(-1, 1) translate(-13.561213, -21.570668) "></path>
    </g>
</svg>