<?xml version="1.0" encoding="UTF-8" standalone="no"?>
<svg width="24px" height="37px" viewBox="0 0 24 37" version="1.1" xmlns="http://www.w3.org/2000/svg" xmlns:xlink="http://www.w3.org/1999/xlink">
    <!-- Generator: Sketch 42 (36781) - http://www.bohemiancoding.com/sketch -->
    <title>hand</title>
    <desc>Created with Sketch.</desc>
    <defs></defs>
    <g id="Page-1" stroke="none" stroke-width="1" fill="none" fill-rule="evenodd">
        <g id="hand" transform="translate(0.000000, 1.000000)" fill-rule="nonzero" stroke="#000000" fill="#000000">
            <g id="Page-1">
                <path d="M21.9677412,9.1969171 C21.1709355,7.16080774 15.6230791,0.67070927 14.4402481,0.13421921 C14.2437543,0.04525547 14.0341093,0 13.8175019,0 C13.2837195,0 12.753805,0.28120279 12.4339223,0.73414428 C12.1202284,1.178963 12.0494442,1.71119826 12.2351077,2.23337676 C12.3426378,2.53546669 12.6060478,3.00078574 12.9553272,3.55816294 C11.1226741,2.41169104 9.4737505,1.51857242 8.90709011,1.44198624 C8.21394651,1.34876771 7.50649135,1.74562336 7.17074992,2.40820985 C6.86865999,3.00426693 6.92513263,3.68309897 7.32160149,4.22307022 C7.73586309,4.78740979 9.0362809,5.85420111 10.4128982,6.98442745 C11.732656,8.06746433 13.0907068,9.1822187 13.6175269,9.8177293 C12.0552462,9.1477936 10.3804071,8.58345404 9.1712737,8.58345404 C8.72413424,8.58345404 8.3559017,8.66197421 8.07663291,8.81746736 C6.25597056,9.8289464 0.88681525,14.6786309 0.74021847,15.8506315 C0.65744351,16.511284 0.9370991,17.3347788 1.43568287,17.8995052 C1.78534906,18.2955872 2.20618624,18.5137418 2.62044785,18.5137418 L2.62083465,18.5137418 C2.69587363,18.5137418 2.77168621,18.5067794 2.8459516,18.4928547 C3.31243105,18.4054381 4.15023743,17.7424648 5.21122677,16.9027244 C6.72283681,15.7063555 8.61350976,14.2005474 9.642008,14.3196815 C10.1734697,14.3811825 10.7366488,14.8786059 11.2274966,15.720667 C12.1051433,17.2260883 12.4791778,19.3658597 12.0444159,20.3935844 C11.3454703,22.046376 10.4941259,23.1468188 8.61350976,23.1468188 C8.27196634,23.1468188 7.89715823,23.1092993 7.49991577,23.0354207 C5.15243334,22.5987248 4.62058488,21.1872957 4.2322388,20.1564767 C4.15062423,19.9398693 4.07326446,19.7352527 3.9873951,19.5627404 C3.68414478,18.9562397 2.73223273,18.4437312 1.9083511,18.4437312 C1.28251051,18.4437312 0.85819213,18.7404059 0.74292606,19.257556 C0.50543155,20.3262814 0.32982486,23.0516663 1.36605907,25.7155502 C2.41815203,28.4215952 4.49642244,30.3757032 7.21755259,31.2177643 C8.69744512,31.6757342 9.5395063,32.4833703 10.2829337,33.1958538 C10.9702754,33.8545723 11.6193239,34.4769317 12.6358314,34.7113319 C12.9255437,34.7778613 13.2608984,34.8118996 13.6322253,34.8118996 C15.5646725,34.8118996 18.5055044,33.901375 20.7195412,31.8668129 C22.587393,30.1501994 22.4013428,27.7183948 22.2210945,25.3662708 C22.1495367,24.4333119 22.0822337,23.5525709 22.1398667,22.725208 C22.1963394,21.9140908 22.2779539,21.1729841 22.3564741,20.4562458 C22.527826,18.8955123 22.6678472,17.6070852 22.4493058,16.4865288 C22.5378828,15.0588542 22.6690076,10.9893431 21.9677412,9.1969171 Z M13.6322253,34.4896961 C13.2852667,34.4896961 12.9738936,34.4583654 12.7077759,34.3968644 C11.7779114,34.182191 11.1884299,33.6170778 10.5053431,32.9626141 C9.7363869,32.2257622 8.86454223,31.3902766 7.31231831,30.9094856 C4.68711429,30.0968212 2.68194887,28.210403 1.6658282,25.5979634 C0.7309353,23.1936215 0.78972873,20.5301244 1.05700676,19.3264062 C1.15989526,18.8622476 1.57647766,18.7647743 1.9075775,18.7647743 C2.61077788,18.7647743 3.44781066,19.2045646 3.69845634,19.7054692 C3.77697651,19.8628963 3.8512419,20.0597769 3.93014887,20.2686483 C4.32197614,21.3087505 4.91455203,22.8807012 7.44034874,23.3506618 C7.85731794,23.4280216 8.251466,23.4674751 8.61273616,23.4674751 C10.7919611,23.4674751 11.6920421,22.0494704 12.340317,20.51736 C12.8744863,19.2548485 12.3225243,16.9591971 11.5048314,15.5566643 C10.9617658,14.6248658 10.3127173,14.0713566 9.6779803,13.9978648 C8.53421599,13.8632588 6.65476021,15.3466325 5.01047815,16.6482108 C4.06630208,17.3955062 3.17395705,18.101801 2.78561097,18.1745192 C2.73068553,18.1845759 2.67537329,18.1899911 2.61967425,18.1899911 L2.61967425,18.1899911 C2.29901798,18.1899911 1.96405014,18.0105164 1.67627177,17.6848318 C1.24189662,17.1928236 0.98815656,16.4544245 1.05894075,15.8889246 C1.18465039,14.8832475 6.3124432,10.1639143 8.23173926,9.0975098 C8.46265819,8.96947932 8.77828608,8.90411031 9.1697266,8.90411031 C11.8912435,8.90411031 17.1335288,11.9021885 17.7226235,12.2441187 L18.1074884,12.4669148 C20.0221428,13.5735464 21.4053357,14.3730597 21.9638732,15.9237365 C22.3967012,17.1262942 22.2373401,18.5798844 22.035431,20.4202735 C21.9565241,21.140493 21.8749095,21.8846941 21.8176633,22.7020001 C21.758483,23.5525709 21.8269464,24.4449159 21.8992778,25.3898656 C22.0733373,27.6654034 22.2535856,30.0179142 20.5006131,31.6289316 C18.3631624,33.5946435 15.4416705,34.4896961 13.6322253,34.4896961 Z M14.0623456,9.8850323 C13.7068775,9.2707957 12.2060978,8.03884121 10.617128,6.73532897 C9.3163233,5.66776405 7.97142361,4.56384003 7.58114354,4.03237837 C7.25313808,3.58562566 7.20826941,3.04681481 7.45814149,2.55364623 C7.7327687,2.0113542 8.30561785,1.68644313 8.86376864,1.76109532 C10.0044385,1.91504128 17.5636491,6.66067678 19.0226545,8.52233981 C19.9610286,9.7194824 20.8332601,12.4777452 21.3333911,14.3169739 C20.591124,13.5325458 19.5459934,12.9264319 18.2703307,12.1891932 L17.8858526,11.9667839 C17.5760267,11.7869224 15.9936325,10.8814262 14.1516962,10.0525162 C14.1215259,9.9925624 14.0917424,9.9360897 14.0623456,9.8850323 Z M12.6969456,0.91980775 C12.9572612,0.55118841 13.386608,0.32220347 13.8171151,0.32220347 C13.9876935,0.32220347 14.1524698,0.35778897 14.3068025,0.42779957 C15.2981681,0.87725987 20.8522133,7.23120514 21.6675853,9.3145039 C22.2276701,10.7460466 22.2323117,13.8002106 22.1708106,15.5748439 C22.0729505,15.3470193 21.9588449,15.1346667 21.8281068,14.9358521 C21.3740049,13.1449733 20.3826394,9.7353411 19.2760078,8.32352519 C18.514014,7.35149959 15.9905381,5.50376132 13.5993474,3.96662256 C13.0868389,3.18026043 12.6706433,2.4967868 12.5387448,2.12545987 C12.3890537,1.70462268 12.4451395,1.27643632 12.6969456,0.91980775 Z" id="hand"></path>
            </g>
        </g>
    </g>
</svg>