<?xml version="1.0" encoding="UTF-8" standalone="no"?>
<svg width="57px" height="57px" viewBox="0 0 57 57" version="1.1" xmlns="http://www.w3.org/2000/svg" xmlns:xlink="http://www.w3.org/1999/xlink">
    <!-- Generator: Sketch 42 (36781) - http://www.bohemiancoding.com/sketch -->
    <title>Shape</title>
    <desc>Created with Sketch.</desc>
    <defs></defs>
    <g id="Page-1" stroke="none" stroke-width="1" fill="none" fill-rule="evenodd">
        <path d="M28.5,0 C27.8832422,0 26.9309548,0.49661201 26.9414062,1.11328125 L26.9414062,26.941404 L1.11328125,26.941404 C0.496523437,26.941404 0,27.8832422 0,28.5 C0,29.1167578 0.496615083,30.0692234 1.11328125,30.0585915 L26.9414062,30.0585915 L26.9414062,55.8867188 C26.9414062,56.5034766 27.8832422,57 28.5,57 C29.1167578,57 30.0585938,56.5034766 30.0585938,55.8867188 L30.0585938,30.0585915 L55.8867188,30.0585915 C56.5034766,30.0585915 57,29.1167578 57,28.5 C57,27.8832422 56.5034766,26.941404 55.8867188,26.941404 L30.0585938,26.941404 L30.0585938,1.11328125 C30.0585938,0.496523437 29.1167578,0 28.5,0 Z" id="Shape" fill="#000000" fill-rule="nonzero"></path>
    </g>
</svg>