<?xml version="1.0" encoding="iso-8859-1"?>
<!-- Generator: Adobe Illustrator 20.1.0, SVG Export Plug-In . SVG Version: 6.00 Build 0)  -->
<svg version="1.1" id="Ebene_1" xmlns="http://www.w3.org/2000/svg" xmlns:xlink="http://www.w3.org/1999/xlink" x="0px" y="0px"
	 viewBox="0 0 425.197 425.197" style="enable-background:new 0 0 425.197 425.197;" xml:space="preserve">
<path style="fill:none;stroke:##fbfbfb;stroke-width:3;stroke-miterlimit:10;" d="M450.477,462.495
	c0.402-19.616-2.246-43.826-8.7-63.373c-6.276-18.833-17.654-37.83-34.434-48.885c-32.287-21.432-59.12-32.864-95.495-45.103
	c-8.775-3.074-17.69-6.425-25.709-11.194c-7.159-4.254-13.81-16.449-5.546-34.791c18.36-40.749,26.944-93.31,25.707-141.401
	c-1.938-75.327-42.577-96.351-95.09-96.351c-52.523,0-97.386,32.832-95.091,96.32c4.626,128.008,18.724,119.785,29.648,139.57
	c10.624,19.241,0.843,32.077-6.311,36.33c-8.028,4.769-16.943,7.796-25.719,10.87c-36.375,12.238-63.207,23.03-95.486,44.462
	c-16.789,11.055-28.161,31.341-34.432,50.174c-6.459,19.546-9.1,43.755-8.702,63.373"/>
</svg>
