<?xml version="1.0" encoding="UTF-8" standalone="no"?>
<svg width="32px" height="32px" viewBox="0 0 32 32" version="1.1" xmlns="http://www.w3.org/2000/svg" xmlns:xlink="http://www.w3.org/1999/xlink">
    <!-- Generator: Sketch 42 (36781) - http://www.bohemiancoding.com/sketch -->
    <title>Shape</title>
    <desc>Created with Sketch.</desc>
    <defs></defs>
    <g id="Page-1" stroke="none" stroke-width="1" fill="none" fill-rule="evenodd">
        <path d="M11.4385609,31.3152077 L11.3174584,28.1193874 L14.5132787,28.2404899 L14.3921762,25.0446695 L17.5879966,25.1668438 L17.466894,21.9710234 L20.6627144,22.0921259 L20.5416119,18.8963056 L23.7352888,19.0174081 L23.6141863,15.8226594 L26.8100067,15.9437619 L26.6889041,12.7479416 L27.6813018,12.7854512 L28.8237379,13.928959 L31.1203988,11.6322981 L29.4624733,9.97437248 L32.071,7.36584574 L25.4360826,0.732 L0.071,26.0960109 L2.55949593,28.5834351 L11.4385609,31.3152077 Z M22.7857594,4.81197589 L29.6050098,11.6322981 L28.8473153,12.3899926 L22.0280649,5.56967038 L22.7857594,4.81197589 Z M21.3625369,6.46347125 L26.5099296,11.6119357 L25.517532,11.5744261 L25.6386345,14.7691747 L22.4428142,14.6491439 L22.5639167,17.8428209 L19.3680964,17.7217183 L19.4891989,20.9186104 L16.2933785,20.7964362 L16.414481,23.9922565 L13.2208041,23.871154 L13.3419066,27.0659027 L10.1460862,26.9458719 L10.2554,29.7912451 L3.10927992,27.5942526 L1.67105359,26.1560263 L21.3625369,6.46347125 Z" id="Shape" fill="#000000" fill-rule="nonzero" transform="translate(16.071000, 16.023604) scale(-1, 1) rotate(90.000000) translate(-16.071000, -16.023604) "></path>
    </g>
</svg>